G04 #@! TF.FileFunction,Legend,Top*
%FSLAX46Y46*%
G04 Gerber Fmt 4.6, Leading zero omitted, Abs format (unit mm)*
G04 Created by KiCad (PCBNEW 4.0.2+dfsg1-stable) date mar 17 jul 2018 09:31:31 CEST*
%MOMM*%
G01*
G04 APERTURE LIST*
%ADD10C,0.100000*%
%ADD11C,0.150000*%
G04 APERTURE END LIST*
D10*
D11*
X128424000Y-86119000D02*
X128224000Y-86119000D01*
X125830000Y-86119000D02*
X126010000Y-86119000D01*
X126140357Y-82891256D02*
G75*
G03X125824000Y-86119000I1003643J-1727744D01*
G01*
X126010932Y-83566994D02*
G75*
G03X126010000Y-85670000I1133068J-1052006D01*
G01*
X128450726Y-86106220D02*
G75*
G03X128104000Y-82869000I-1306726J1497220D01*
G01*
X128223253Y-85632889D02*
G75*
G03X128204000Y-83585000I-1079253J1013889D01*
G01*
X133424000Y-86119000D02*
X133224000Y-86119000D01*
X130830000Y-86119000D02*
X131010000Y-86119000D01*
X131140357Y-82891256D02*
G75*
G03X130824000Y-86119000I1003643J-1727744D01*
G01*
X131010932Y-83566994D02*
G75*
G03X131010000Y-85670000I1133068J-1052006D01*
G01*
X133450726Y-86106220D02*
G75*
G03X133104000Y-82869000I-1306726J1497220D01*
G01*
X133223253Y-85632889D02*
G75*
G03X133204000Y-83585000I-1079253J1013889D01*
G01*
X131440000Y-117580000D02*
X131440000Y-112500000D01*
X131440000Y-112500000D02*
X133980000Y-112500000D01*
X133980000Y-112500000D02*
X133980000Y-117580000D01*
X133980000Y-117580000D02*
X131440000Y-117580000D01*
X132710000Y-117580000D02*
X132710000Y-118850000D01*
X132710000Y-112500000D02*
X132710000Y-111230000D01*
X133350000Y-130810000D02*
X123190000Y-130810000D01*
X133350000Y-132080000D02*
X133350000Y-124460000D01*
X133350000Y-124460000D02*
X123190000Y-124460000D01*
X123190000Y-124460000D02*
X123190000Y-132080000D01*
X123190000Y-132080000D02*
X133350000Y-132080000D01*
X106680000Y-132080000D02*
X106680000Y-124460000D01*
X121920000Y-132080000D02*
X121920000Y-124460000D01*
X106680000Y-130810000D02*
X121920000Y-130810000D01*
X106680000Y-124460000D02*
X121920000Y-124460000D01*
X106680000Y-132080000D02*
X121920000Y-132080000D01*
X122850000Y-65406000D02*
X117770000Y-65406000D01*
X117770000Y-65406000D02*
X117770000Y-60834000D01*
X117770000Y-60834000D02*
X122850000Y-60834000D01*
X122850000Y-60834000D02*
X122850000Y-65406000D01*
X122850000Y-63882000D02*
X122342000Y-63882000D01*
X122342000Y-63882000D02*
X122342000Y-62612000D01*
X122342000Y-62612000D02*
X122850000Y-62612000D01*
X113310000Y-86945000D02*
X115310000Y-86945000D01*
X115310000Y-84895000D02*
X113310000Y-84895000D01*
X113310000Y-84345000D02*
X115310000Y-84345000D01*
X115310000Y-82295000D02*
X113310000Y-82295000D01*
X125235000Y-67720000D02*
X125235000Y-65720000D01*
X127385000Y-65720000D02*
X127385000Y-67720000D01*
X113035000Y-67720000D02*
X113035000Y-65720000D01*
X115185000Y-65720000D02*
X115185000Y-67720000D01*
X115185000Y-55920000D02*
X115185000Y-57920000D01*
X113035000Y-57920000D02*
X113035000Y-55920000D01*
X127385000Y-55920000D02*
X127385000Y-57920000D01*
X125235000Y-57920000D02*
X125235000Y-55920000D01*
X117635000Y-78120000D02*
X117635000Y-76120000D01*
X119785000Y-76120000D02*
X119785000Y-78120000D01*
X128985000Y-76120000D02*
X128985000Y-78120000D01*
X126835000Y-78120000D02*
X126835000Y-76120000D01*
X132785000Y-76120000D02*
X132785000Y-78120000D01*
X130635000Y-78120000D02*
X130635000Y-76120000D01*
X124185000Y-76120000D02*
X124185000Y-78120000D01*
X122035000Y-78120000D02*
X122035000Y-76120000D01*
X123510000Y-73595000D02*
X121510000Y-73595000D01*
X121510000Y-71445000D02*
X123510000Y-71445000D01*
X132980000Y-56390000D02*
X132980000Y-74170000D01*
X132980000Y-74170000D02*
X130440000Y-74170000D01*
X130440000Y-74170000D02*
X130440000Y-56390000D01*
X133260000Y-53570000D02*
X133260000Y-55120000D01*
X132980000Y-56390000D02*
X130440000Y-56390000D01*
X130160000Y-55120000D02*
X130160000Y-53570000D01*
X130160000Y-53570000D02*
X133260000Y-53570000D01*
X107640000Y-71650000D02*
X107640000Y-53870000D01*
X107640000Y-53870000D02*
X110180000Y-53870000D01*
X110180000Y-53870000D02*
X110180000Y-71650000D01*
X107360000Y-74470000D02*
X107360000Y-72920000D01*
X107640000Y-71650000D02*
X110180000Y-71650000D01*
X110460000Y-72920000D02*
X110460000Y-74470000D01*
X110460000Y-74470000D02*
X107360000Y-74470000D01*
X106610000Y-123520000D02*
X106610000Y-87920000D01*
X106610000Y-87920000D02*
X130810000Y-87920000D01*
X130810000Y-87920000D02*
X130810000Y-123520000D01*
X130810000Y-123520000D02*
X106610000Y-123520000D01*
X106610000Y-123520000D02*
X106610000Y-119720000D01*
X106610000Y-123520000D02*
X106610000Y-119720000D01*
X127531905Y-81732381D02*
X127531905Y-80732381D01*
X127770000Y-80732381D01*
X127912858Y-80780000D01*
X128008096Y-80875238D01*
X128055715Y-80970476D01*
X128103334Y-81160952D01*
X128103334Y-81303810D01*
X128055715Y-81494286D01*
X128008096Y-81589524D01*
X127912858Y-81684762D01*
X127770000Y-81732381D01*
X127531905Y-81732381D01*
X129055715Y-81732381D02*
X128484286Y-81732381D01*
X128770000Y-81732381D02*
X128770000Y-80732381D01*
X128674762Y-80875238D01*
X128579524Y-80970476D01*
X128484286Y-81018095D01*
X132611905Y-81732381D02*
X132611905Y-80732381D01*
X132850000Y-80732381D01*
X132992858Y-80780000D01*
X133088096Y-80875238D01*
X133135715Y-80970476D01*
X133183334Y-81160952D01*
X133183334Y-81303810D01*
X133135715Y-81494286D01*
X133088096Y-81589524D01*
X132992858Y-81684762D01*
X132850000Y-81732381D01*
X132611905Y-81732381D01*
X133516667Y-80732381D02*
X134135715Y-80732381D01*
X133802381Y-81113333D01*
X133945239Y-81113333D01*
X134040477Y-81160952D01*
X134088096Y-81208571D01*
X134135715Y-81303810D01*
X134135715Y-81541905D01*
X134088096Y-81637143D01*
X134040477Y-81684762D01*
X133945239Y-81732381D01*
X133659524Y-81732381D01*
X133564286Y-81684762D01*
X133516667Y-81637143D01*
X132643571Y-122888333D02*
X132643571Y-123221667D01*
X133167381Y-123221667D02*
X132167381Y-123221667D01*
X132167381Y-122745476D01*
X133167381Y-121840714D02*
X133167381Y-122412143D01*
X133167381Y-122126429D02*
X132167381Y-122126429D01*
X132310238Y-122221667D01*
X132405476Y-122316905D01*
X132453095Y-122412143D01*
X124126667Y-125182381D02*
X124126667Y-125896667D01*
X124079047Y-126039524D01*
X123983809Y-126134762D01*
X123840952Y-126182381D01*
X123745714Y-126182381D01*
X125126667Y-126182381D02*
X124555238Y-126182381D01*
X124840952Y-126182381D02*
X124840952Y-125182381D01*
X124745714Y-125325238D01*
X124650476Y-125420476D01*
X124555238Y-125468095D01*
X108251667Y-125182381D02*
X108251667Y-125896667D01*
X108204047Y-126039524D01*
X108108809Y-126134762D01*
X107965952Y-126182381D01*
X107870714Y-126182381D01*
X108680238Y-125277619D02*
X108727857Y-125230000D01*
X108823095Y-125182381D01*
X109061191Y-125182381D01*
X109156429Y-125230000D01*
X109204048Y-125277619D01*
X109251667Y-125372857D01*
X109251667Y-125468095D01*
X109204048Y-125610952D01*
X108632619Y-126182381D01*
X109251667Y-126182381D01*
X119176667Y-80232381D02*
X119176667Y-80946667D01*
X119129047Y-81089524D01*
X119033809Y-81184762D01*
X118890952Y-81232381D01*
X118795714Y-81232381D01*
X119557619Y-80232381D02*
X120176667Y-80232381D01*
X119843333Y-80613333D01*
X119986191Y-80613333D01*
X120081429Y-80660952D01*
X120129048Y-80708571D01*
X120176667Y-80803810D01*
X120176667Y-81041905D01*
X120129048Y-81137143D01*
X120081429Y-81184762D01*
X119986191Y-81232381D01*
X119700476Y-81232381D01*
X119605238Y-81184762D01*
X119557619Y-81137143D01*
X119548095Y-63842381D02*
X119548095Y-64651905D01*
X119595714Y-64747143D01*
X119643333Y-64794762D01*
X119738571Y-64842381D01*
X119929048Y-64842381D01*
X120024286Y-64794762D01*
X120071905Y-64747143D01*
X120119524Y-64651905D01*
X120119524Y-63842381D01*
X120500476Y-63842381D02*
X121119524Y-63842381D01*
X120786190Y-64223333D01*
X120929048Y-64223333D01*
X121024286Y-64270952D01*
X121071905Y-64318571D01*
X121119524Y-64413810D01*
X121119524Y-64651905D01*
X121071905Y-64747143D01*
X121024286Y-64794762D01*
X120929048Y-64842381D01*
X120643333Y-64842381D01*
X120548095Y-64794762D01*
X120500476Y-64747143D01*
X107783334Y-84812143D02*
X107735715Y-84859762D01*
X107592858Y-84907381D01*
X107497620Y-84907381D01*
X107354762Y-84859762D01*
X107259524Y-84764524D01*
X107211905Y-84669286D01*
X107164286Y-84478810D01*
X107164286Y-84335952D01*
X107211905Y-84145476D01*
X107259524Y-84050238D01*
X107354762Y-83955000D01*
X107497620Y-83907381D01*
X107592858Y-83907381D01*
X107735715Y-83955000D01*
X107783334Y-84002619D01*
X108735715Y-84907381D02*
X108164286Y-84907381D01*
X108450000Y-84907381D02*
X108450000Y-83907381D01*
X108354762Y-84050238D01*
X108259524Y-84145476D01*
X108164286Y-84193095D01*
X112228334Y-81637143D02*
X112180715Y-81684762D01*
X112037858Y-81732381D01*
X111942620Y-81732381D01*
X111799762Y-81684762D01*
X111704524Y-81589524D01*
X111656905Y-81494286D01*
X111609286Y-81303810D01*
X111609286Y-81160952D01*
X111656905Y-80970476D01*
X111704524Y-80875238D01*
X111799762Y-80780000D01*
X111942620Y-80732381D01*
X112037858Y-80732381D01*
X112180715Y-80780000D01*
X112228334Y-80827619D01*
X112609286Y-80827619D02*
X112656905Y-80780000D01*
X112752143Y-80732381D01*
X112990239Y-80732381D01*
X113085477Y-80780000D01*
X113133096Y-80827619D01*
X113180715Y-80922857D01*
X113180715Y-81018095D01*
X113133096Y-81160952D01*
X112561667Y-81732381D01*
X113180715Y-81732381D01*
X124912381Y-66841666D02*
X124436190Y-67175000D01*
X124912381Y-67413095D02*
X123912381Y-67413095D01*
X123912381Y-67032142D01*
X123960000Y-66936904D01*
X124007619Y-66889285D01*
X124102857Y-66841666D01*
X124245714Y-66841666D01*
X124340952Y-66889285D01*
X124388571Y-66936904D01*
X124436190Y-67032142D01*
X124436190Y-67413095D01*
X124912381Y-65889285D02*
X124912381Y-66460714D01*
X124912381Y-66175000D02*
X123912381Y-66175000D01*
X124055238Y-66270238D01*
X124150476Y-66365476D01*
X124198095Y-66460714D01*
X112212381Y-66841666D02*
X111736190Y-67175000D01*
X112212381Y-67413095D02*
X111212381Y-67413095D01*
X111212381Y-67032142D01*
X111260000Y-66936904D01*
X111307619Y-66889285D01*
X111402857Y-66841666D01*
X111545714Y-66841666D01*
X111640952Y-66889285D01*
X111688571Y-66936904D01*
X111736190Y-67032142D01*
X111736190Y-67413095D01*
X111307619Y-66460714D02*
X111260000Y-66413095D01*
X111212381Y-66317857D01*
X111212381Y-66079761D01*
X111260000Y-65984523D01*
X111307619Y-65936904D01*
X111402857Y-65889285D01*
X111498095Y-65889285D01*
X111640952Y-65936904D01*
X112212381Y-66508333D01*
X112212381Y-65889285D01*
X112262381Y-57086666D02*
X111786190Y-57420000D01*
X112262381Y-57658095D02*
X111262381Y-57658095D01*
X111262381Y-57277142D01*
X111310000Y-57181904D01*
X111357619Y-57134285D01*
X111452857Y-57086666D01*
X111595714Y-57086666D01*
X111690952Y-57134285D01*
X111738571Y-57181904D01*
X111786190Y-57277142D01*
X111786190Y-57658095D01*
X111262381Y-56753333D02*
X111262381Y-56134285D01*
X111643333Y-56467619D01*
X111643333Y-56324761D01*
X111690952Y-56229523D01*
X111738571Y-56181904D01*
X111833810Y-56134285D01*
X112071905Y-56134285D01*
X112167143Y-56181904D01*
X112214762Y-56229523D01*
X112262381Y-56324761D01*
X112262381Y-56610476D01*
X112214762Y-56705714D01*
X112167143Y-56753333D01*
X124462381Y-57086666D02*
X123986190Y-57420000D01*
X124462381Y-57658095D02*
X123462381Y-57658095D01*
X123462381Y-57277142D01*
X123510000Y-57181904D01*
X123557619Y-57134285D01*
X123652857Y-57086666D01*
X123795714Y-57086666D01*
X123890952Y-57134285D01*
X123938571Y-57181904D01*
X123986190Y-57277142D01*
X123986190Y-57658095D01*
X123795714Y-56229523D02*
X124462381Y-56229523D01*
X123414762Y-56467619D02*
X124129048Y-56705714D01*
X124129048Y-56086666D01*
X117292381Y-78906666D02*
X116816190Y-79240000D01*
X117292381Y-79478095D02*
X116292381Y-79478095D01*
X116292381Y-79097142D01*
X116340000Y-79001904D01*
X116387619Y-78954285D01*
X116482857Y-78906666D01*
X116625714Y-78906666D01*
X116720952Y-78954285D01*
X116768571Y-79001904D01*
X116816190Y-79097142D01*
X116816190Y-79478095D01*
X116292381Y-78001904D02*
X116292381Y-78478095D01*
X116768571Y-78525714D01*
X116720952Y-78478095D01*
X116673333Y-78382857D01*
X116673333Y-78144761D01*
X116720952Y-78049523D01*
X116768571Y-78001904D01*
X116863810Y-77954285D01*
X117101905Y-77954285D01*
X117197143Y-78001904D01*
X117244762Y-78049523D01*
X117292381Y-78144761D01*
X117292381Y-78382857D01*
X117244762Y-78478095D01*
X117197143Y-78525714D01*
X126182381Y-78906666D02*
X125706190Y-79240000D01*
X126182381Y-79478095D02*
X125182381Y-79478095D01*
X125182381Y-79097142D01*
X125230000Y-79001904D01*
X125277619Y-78954285D01*
X125372857Y-78906666D01*
X125515714Y-78906666D01*
X125610952Y-78954285D01*
X125658571Y-79001904D01*
X125706190Y-79097142D01*
X125706190Y-79478095D01*
X125182381Y-78049523D02*
X125182381Y-78240000D01*
X125230000Y-78335238D01*
X125277619Y-78382857D01*
X125420476Y-78478095D01*
X125610952Y-78525714D01*
X125991905Y-78525714D01*
X126087143Y-78478095D01*
X126134762Y-78430476D01*
X126182381Y-78335238D01*
X126182381Y-78144761D01*
X126134762Y-78049523D01*
X126087143Y-78001904D01*
X125991905Y-77954285D01*
X125753810Y-77954285D01*
X125658571Y-78001904D01*
X125610952Y-78049523D01*
X125563333Y-78144761D01*
X125563333Y-78335238D01*
X125610952Y-78430476D01*
X125658571Y-78478095D01*
X125753810Y-78525714D01*
X130627381Y-78906666D02*
X130151190Y-79240000D01*
X130627381Y-79478095D02*
X129627381Y-79478095D01*
X129627381Y-79097142D01*
X129675000Y-79001904D01*
X129722619Y-78954285D01*
X129817857Y-78906666D01*
X129960714Y-78906666D01*
X130055952Y-78954285D01*
X130103571Y-79001904D01*
X130151190Y-79097142D01*
X130151190Y-79478095D01*
X130055952Y-78335238D02*
X130008333Y-78430476D01*
X129960714Y-78478095D01*
X129865476Y-78525714D01*
X129817857Y-78525714D01*
X129722619Y-78478095D01*
X129675000Y-78430476D01*
X129627381Y-78335238D01*
X129627381Y-78144761D01*
X129675000Y-78049523D01*
X129722619Y-78001904D01*
X129817857Y-77954285D01*
X129865476Y-77954285D01*
X129960714Y-78001904D01*
X130008333Y-78049523D01*
X130055952Y-78144761D01*
X130055952Y-78335238D01*
X130103571Y-78430476D01*
X130151190Y-78478095D01*
X130246429Y-78525714D01*
X130436905Y-78525714D01*
X130532143Y-78478095D01*
X130579762Y-78430476D01*
X130627381Y-78335238D01*
X130627381Y-78144761D01*
X130579762Y-78049523D01*
X130532143Y-78001904D01*
X130436905Y-77954285D01*
X130246429Y-77954285D01*
X130151190Y-78001904D01*
X130103571Y-78049523D01*
X130055952Y-78144761D01*
X121737381Y-78906666D02*
X121261190Y-79240000D01*
X121737381Y-79478095D02*
X120737381Y-79478095D01*
X120737381Y-79097142D01*
X120785000Y-79001904D01*
X120832619Y-78954285D01*
X120927857Y-78906666D01*
X121070714Y-78906666D01*
X121165952Y-78954285D01*
X121213571Y-79001904D01*
X121261190Y-79097142D01*
X121261190Y-79478095D01*
X121737381Y-78430476D02*
X121737381Y-78240000D01*
X121689762Y-78144761D01*
X121642143Y-78097142D01*
X121499286Y-78001904D01*
X121308810Y-77954285D01*
X120927857Y-77954285D01*
X120832619Y-78001904D01*
X120785000Y-78049523D01*
X120737381Y-78144761D01*
X120737381Y-78335238D01*
X120785000Y-78430476D01*
X120832619Y-78478095D01*
X120927857Y-78525714D01*
X121165952Y-78525714D01*
X121261190Y-78478095D01*
X121308810Y-78430476D01*
X121356429Y-78335238D01*
X121356429Y-78144761D01*
X121308810Y-78049523D01*
X121261190Y-78001904D01*
X121165952Y-77954285D01*
X120007143Y-70937381D02*
X119673809Y-70461190D01*
X119435714Y-70937381D02*
X119435714Y-69937381D01*
X119816667Y-69937381D01*
X119911905Y-69985000D01*
X119959524Y-70032619D01*
X120007143Y-70127857D01*
X120007143Y-70270714D01*
X119959524Y-70365952D01*
X119911905Y-70413571D01*
X119816667Y-70461190D01*
X119435714Y-70461190D01*
X120959524Y-70937381D02*
X120388095Y-70937381D01*
X120673809Y-70937381D02*
X120673809Y-69937381D01*
X120578571Y-70080238D01*
X120483333Y-70175476D01*
X120388095Y-70223095D01*
X121578571Y-69937381D02*
X121673810Y-69937381D01*
X121769048Y-69985000D01*
X121816667Y-70032619D01*
X121864286Y-70127857D01*
X121911905Y-70318333D01*
X121911905Y-70556429D01*
X121864286Y-70746905D01*
X121816667Y-70842143D01*
X121769048Y-70889762D01*
X121673810Y-70937381D01*
X121578571Y-70937381D01*
X121483333Y-70889762D01*
X121435714Y-70842143D01*
X121388095Y-70746905D01*
X121340476Y-70556429D01*
X121340476Y-70318333D01*
X121388095Y-70127857D01*
X121435714Y-70032619D01*
X121483333Y-69985000D01*
X121578571Y-69937381D01*
X130706905Y-50617381D02*
X130706905Y-49617381D01*
X131087858Y-49617381D01*
X131183096Y-49665000D01*
X131230715Y-49712619D01*
X131278334Y-49807857D01*
X131278334Y-49950714D01*
X131230715Y-50045952D01*
X131183096Y-50093571D01*
X131087858Y-50141190D01*
X130706905Y-50141190D01*
X132230715Y-50617381D02*
X131659286Y-50617381D01*
X131945000Y-50617381D02*
X131945000Y-49617381D01*
X131849762Y-49760238D01*
X131754524Y-49855476D01*
X131659286Y-49903095D01*
X107846905Y-50617381D02*
X107846905Y-49617381D01*
X108227858Y-49617381D01*
X108323096Y-49665000D01*
X108370715Y-49712619D01*
X108418334Y-49807857D01*
X108418334Y-49950714D01*
X108370715Y-50045952D01*
X108323096Y-50093571D01*
X108227858Y-50141190D01*
X107846905Y-50141190D01*
X108799286Y-49712619D02*
X108846905Y-49665000D01*
X108942143Y-49617381D01*
X109180239Y-49617381D01*
X109275477Y-49665000D01*
X109323096Y-49712619D01*
X109370715Y-49807857D01*
X109370715Y-49903095D01*
X109323096Y-50045952D01*
X108751667Y-50617381D01*
X109370715Y-50617381D01*
M02*
