G04 #@! TF.FileFunction,Other,User*
%FSLAX46Y46*%
G04 Gerber Fmt 4.6, Leading zero omitted, Abs format (unit mm)*
G04 Created by KiCad (PCBNEW 4.0.2+dfsg1-stable) date mar 17 jul 2018 09:31:31 CEST*
%MOMM*%
G01*
G04 APERTURE LIST*
%ADD10C,0.100000*%
%ADD11C,0.050000*%
G04 APERTURE END LIST*
D10*
D11*
X129410000Y-87120000D02*
X129410000Y-82120000D01*
X129410000Y-82120000D02*
X124910000Y-82120000D01*
X124910000Y-82120000D02*
X124910000Y-87120000D01*
X124910000Y-87120000D02*
X129410000Y-87120000D01*
X134410000Y-87120000D02*
X134410000Y-82120000D01*
X134410000Y-82120000D02*
X129910000Y-82120000D01*
X129910000Y-82120000D02*
X129910000Y-87120000D01*
X129910000Y-87120000D02*
X134410000Y-87120000D01*
X131210000Y-121370000D02*
X131210000Y-108720000D01*
X134210000Y-121370000D02*
X131210000Y-121370000D01*
X131210000Y-108720000D02*
X134210000Y-108720000D01*
X134210000Y-121370000D02*
X134210000Y-108720000D01*
X117610000Y-87070000D02*
X111010000Y-87070000D01*
X117610000Y-84770000D02*
X111010000Y-84770000D01*
X117610000Y-87070000D02*
X117610000Y-84770000D01*
X111010000Y-87070000D02*
X111010000Y-84770000D01*
X117610000Y-84470000D02*
X111010000Y-84470000D01*
X117610000Y-82170000D02*
X111010000Y-82170000D01*
X117610000Y-84470000D02*
X117610000Y-82170000D01*
X111010000Y-84470000D02*
X111010000Y-82170000D01*
X127510000Y-64520000D02*
X127510000Y-68920000D01*
X125110000Y-64520000D02*
X125110000Y-68920000D01*
X127510000Y-64520000D02*
X125110000Y-64520000D01*
X127510000Y-68920000D02*
X125110000Y-68920000D01*
X115310000Y-64520000D02*
X115310000Y-68920000D01*
X112910000Y-64520000D02*
X112910000Y-68920000D01*
X115310000Y-64520000D02*
X112910000Y-64520000D01*
X115310000Y-68920000D02*
X112910000Y-68920000D01*
X112910000Y-59120000D02*
X112910000Y-54720000D01*
X115310000Y-59120000D02*
X115310000Y-54720000D01*
X112910000Y-59120000D02*
X115310000Y-59120000D01*
X112910000Y-54720000D02*
X115310000Y-54720000D01*
X125110000Y-59120000D02*
X125110000Y-54720000D01*
X127510000Y-59120000D02*
X127510000Y-54720000D01*
X125110000Y-59120000D02*
X127510000Y-59120000D01*
X125110000Y-54720000D02*
X127510000Y-54720000D01*
X119910000Y-74920000D02*
X119910000Y-79320000D01*
X117510000Y-74920000D02*
X117510000Y-79320000D01*
X119910000Y-74920000D02*
X117510000Y-74920000D01*
X119910000Y-79320000D02*
X117510000Y-79320000D01*
X126710000Y-79320000D02*
X126710000Y-74920000D01*
X129110000Y-79320000D02*
X129110000Y-74920000D01*
X126710000Y-79320000D02*
X129110000Y-79320000D01*
X126710000Y-74920000D02*
X129110000Y-74920000D01*
X130510000Y-79320000D02*
X130510000Y-74920000D01*
X132910000Y-79320000D02*
X132910000Y-74920000D01*
X130510000Y-79320000D02*
X132910000Y-79320000D01*
X130510000Y-74920000D02*
X132910000Y-74920000D01*
X121910000Y-79320000D02*
X121910000Y-74920000D01*
X124310000Y-79320000D02*
X124310000Y-74920000D01*
X121910000Y-79320000D02*
X124310000Y-79320000D01*
X121910000Y-74920000D02*
X124310000Y-74920000D01*
X120310000Y-71320000D02*
X124710000Y-71320000D01*
X120310000Y-73720000D02*
X124710000Y-73720000D01*
X120310000Y-71320000D02*
X120310000Y-73720000D01*
X124710000Y-71320000D02*
X124710000Y-73720000D01*
X129960000Y-53370000D02*
X129960000Y-74670000D01*
X133460000Y-53370000D02*
X133460000Y-74670000D01*
X129960000Y-53370000D02*
X133460000Y-53370000D01*
X129960000Y-74670000D02*
X133460000Y-74670000D01*
X110660000Y-74670000D02*
X110660000Y-53370000D01*
X107160000Y-74670000D02*
X107160000Y-53370000D01*
X110660000Y-74670000D02*
X107160000Y-74670000D01*
X110660000Y-53370000D02*
X107160000Y-53370000D01*
M02*
