G04 #@! TF.FileFunction,Other,Fab,Top*
%FSLAX46Y46*%
G04 Gerber Fmt 4.6, Leading zero omitted, Abs format (unit mm)*
G04 Created by KiCad (PCBNEW 4.0.2+dfsg1-stable) date mar 17 jul 2018 09:31:31 CEST*
%MOMM*%
G01*
G04 APERTURE LIST*
%ADD10C,0.100000*%
%ADD11C,0.150000*%
G04 APERTURE END LIST*
D10*
D11*
X125087143Y-81732381D02*
X124610952Y-81732381D01*
X124610952Y-80732381D01*
X125420476Y-81208571D02*
X125753810Y-81208571D01*
X125896667Y-81732381D02*
X125420476Y-81732381D01*
X125420476Y-80732381D01*
X125896667Y-80732381D01*
X126325238Y-81732381D02*
X126325238Y-80732381D01*
X126563333Y-80732381D01*
X126706191Y-80780000D01*
X126801429Y-80875238D01*
X126849048Y-80970476D01*
X126896667Y-81160952D01*
X126896667Y-81303810D01*
X126849048Y-81494286D01*
X126801429Y-81589524D01*
X126706191Y-81684762D01*
X126563333Y-81732381D01*
X126325238Y-81732381D01*
X130167143Y-81732381D02*
X129690952Y-81732381D01*
X129690952Y-80732381D01*
X130500476Y-81208571D02*
X130833810Y-81208571D01*
X130976667Y-81732381D02*
X130500476Y-81732381D01*
X130500476Y-80732381D01*
X130976667Y-80732381D01*
X131405238Y-81732381D02*
X131405238Y-80732381D01*
X131643333Y-80732381D01*
X131786191Y-80780000D01*
X131881429Y-80875238D01*
X131929048Y-80970476D01*
X131976667Y-81160952D01*
X131976667Y-81303810D01*
X131929048Y-81494286D01*
X131881429Y-81589524D01*
X131786191Y-81684762D01*
X131643333Y-81732381D01*
X131405238Y-81732381D01*
X132643571Y-116077857D02*
X132643571Y-116411191D01*
X133167381Y-116411191D02*
X132167381Y-116411191D01*
X132167381Y-115935000D01*
X132500714Y-115125476D02*
X133167381Y-115125476D01*
X132500714Y-115554048D02*
X133024524Y-115554048D01*
X133119762Y-115506429D01*
X133167381Y-115411191D01*
X133167381Y-115268333D01*
X133119762Y-115173095D01*
X133072143Y-115125476D01*
X133119762Y-114696905D02*
X133167381Y-114601667D01*
X133167381Y-114411191D01*
X133119762Y-114315952D01*
X133024524Y-114268333D01*
X132976905Y-114268333D01*
X132881667Y-114315952D01*
X132834048Y-114411191D01*
X132834048Y-114554048D01*
X132786429Y-114649286D01*
X132691190Y-114696905D01*
X132643571Y-114696905D01*
X132548333Y-114649286D01*
X132500714Y-114554048D01*
X132500714Y-114411191D01*
X132548333Y-114315952D01*
X133119762Y-113458809D02*
X133167381Y-113554047D01*
X133167381Y-113744524D01*
X133119762Y-113839762D01*
X133024524Y-113887381D01*
X132643571Y-113887381D01*
X132548333Y-113839762D01*
X132500714Y-113744524D01*
X132500714Y-113554047D01*
X132548333Y-113458809D01*
X132643571Y-113411190D01*
X132738810Y-113411190D01*
X132834048Y-113887381D01*
X126540000Y-125896667D02*
X127016191Y-125896667D01*
X126444762Y-126182381D02*
X126778095Y-125182381D01*
X127111429Y-126182381D01*
X128016191Y-126087143D02*
X127968572Y-126134762D01*
X127825715Y-126182381D01*
X127730477Y-126182381D01*
X127587619Y-126134762D01*
X127492381Y-126039524D01*
X127444762Y-125944286D01*
X127397143Y-125753810D01*
X127397143Y-125610952D01*
X127444762Y-125420476D01*
X127492381Y-125325238D01*
X127587619Y-125230000D01*
X127730477Y-125182381D01*
X127825715Y-125182381D01*
X127968572Y-125230000D01*
X128016191Y-125277619D01*
X128206667Y-126277619D02*
X128968572Y-126277619D01*
X129206667Y-126182381D02*
X129206667Y-125515714D01*
X129206667Y-125182381D02*
X129159048Y-125230000D01*
X129206667Y-125277619D01*
X129254286Y-125230000D01*
X129206667Y-125182381D01*
X129206667Y-125277619D01*
X129682857Y-125515714D02*
X129682857Y-126182381D01*
X129682857Y-125610952D02*
X129730476Y-125563333D01*
X129825714Y-125515714D01*
X129968572Y-125515714D01*
X130063810Y-125563333D01*
X130111429Y-125658571D01*
X130111429Y-126182381D01*
X130587619Y-125515714D02*
X130587619Y-126515714D01*
X130587619Y-125563333D02*
X130682857Y-125515714D01*
X130873334Y-125515714D01*
X130968572Y-125563333D01*
X131016191Y-125610952D01*
X131063810Y-125706190D01*
X131063810Y-125991905D01*
X131016191Y-126087143D01*
X130968572Y-126134762D01*
X130873334Y-126182381D01*
X130682857Y-126182381D01*
X130587619Y-126134762D01*
X131920953Y-125515714D02*
X131920953Y-126182381D01*
X131492381Y-125515714D02*
X131492381Y-126039524D01*
X131540000Y-126134762D01*
X131635238Y-126182381D01*
X131778096Y-126182381D01*
X131873334Y-126134762D01*
X131920953Y-126087143D01*
X132254286Y-125515714D02*
X132635238Y-125515714D01*
X132397143Y-125182381D02*
X132397143Y-126039524D01*
X132444762Y-126134762D01*
X132540000Y-126182381D01*
X132635238Y-126182381D01*
X111681191Y-126087143D02*
X111633572Y-126134762D01*
X111490715Y-126182381D01*
X111395477Y-126182381D01*
X111252619Y-126134762D01*
X111157381Y-126039524D01*
X111109762Y-125944286D01*
X111062143Y-125753810D01*
X111062143Y-125610952D01*
X111109762Y-125420476D01*
X111157381Y-125325238D01*
X111252619Y-125230000D01*
X111395477Y-125182381D01*
X111490715Y-125182381D01*
X111633572Y-125230000D01*
X111681191Y-125277619D01*
X112252619Y-126182381D02*
X112157381Y-126134762D01*
X112109762Y-126087143D01*
X112062143Y-125991905D01*
X112062143Y-125706190D01*
X112109762Y-125610952D01*
X112157381Y-125563333D01*
X112252619Y-125515714D01*
X112395477Y-125515714D01*
X112490715Y-125563333D01*
X112538334Y-125610952D01*
X112585953Y-125706190D01*
X112585953Y-125991905D01*
X112538334Y-126087143D01*
X112490715Y-126134762D01*
X112395477Y-126182381D01*
X112252619Y-126182381D01*
X113014524Y-125515714D02*
X113014524Y-126182381D01*
X113014524Y-125610952D02*
X113062143Y-125563333D01*
X113157381Y-125515714D01*
X113300239Y-125515714D01*
X113395477Y-125563333D01*
X113443096Y-125658571D01*
X113443096Y-126182381D01*
X113919286Y-125515714D02*
X113919286Y-126182381D01*
X113919286Y-125610952D02*
X113966905Y-125563333D01*
X114062143Y-125515714D01*
X114205001Y-125515714D01*
X114300239Y-125563333D01*
X114347858Y-125658571D01*
X114347858Y-126182381D01*
X114585953Y-126277619D02*
X115347858Y-126277619D01*
X115585953Y-126182381D02*
X115585953Y-125182381D01*
X115919287Y-125896667D01*
X116252620Y-125182381D01*
X116252620Y-126182381D01*
X116919286Y-125182381D02*
X117109763Y-125182381D01*
X117205001Y-125230000D01*
X117300239Y-125325238D01*
X117347858Y-125515714D01*
X117347858Y-125849048D01*
X117300239Y-126039524D01*
X117205001Y-126134762D01*
X117109763Y-126182381D01*
X116919286Y-126182381D01*
X116824048Y-126134762D01*
X116728810Y-126039524D01*
X116681191Y-125849048D01*
X116681191Y-125515714D01*
X116728810Y-125325238D01*
X116824048Y-125230000D01*
X116919286Y-125182381D01*
X117776429Y-126182381D02*
X117776429Y-125182381D01*
X118014524Y-125182381D01*
X118157382Y-125230000D01*
X118252620Y-125325238D01*
X118300239Y-125420476D01*
X118347858Y-125610952D01*
X118347858Y-125753810D01*
X118300239Y-125944286D01*
X118252620Y-126039524D01*
X118157382Y-126134762D01*
X118014524Y-126182381D01*
X117776429Y-126182381D01*
X119109763Y-125658571D02*
X119252620Y-125706190D01*
X119300239Y-125753810D01*
X119347858Y-125849048D01*
X119347858Y-125991905D01*
X119300239Y-126087143D01*
X119252620Y-126134762D01*
X119157382Y-126182381D01*
X118776429Y-126182381D01*
X118776429Y-125182381D01*
X119109763Y-125182381D01*
X119205001Y-125230000D01*
X119252620Y-125277619D01*
X119300239Y-125372857D01*
X119300239Y-125468095D01*
X119252620Y-125563333D01*
X119205001Y-125610952D01*
X119109763Y-125658571D01*
X118776429Y-125658571D01*
X119776429Y-125182381D02*
X119776429Y-125991905D01*
X119824048Y-126087143D01*
X119871667Y-126134762D01*
X119966905Y-126182381D01*
X120157382Y-126182381D01*
X120252620Y-126134762D01*
X120300239Y-126087143D01*
X120347858Y-125991905D01*
X120347858Y-125182381D01*
X120776429Y-126134762D02*
X120919286Y-126182381D01*
X121157382Y-126182381D01*
X121252620Y-126134762D01*
X121300239Y-126087143D01*
X121347858Y-125991905D01*
X121347858Y-125896667D01*
X121300239Y-125801429D01*
X121252620Y-125753810D01*
X121157382Y-125706190D01*
X120966905Y-125658571D01*
X120871667Y-125610952D01*
X120824048Y-125563333D01*
X120776429Y-125468095D01*
X120776429Y-125372857D01*
X120824048Y-125277619D01*
X120871667Y-125230000D01*
X120966905Y-125182381D01*
X121205001Y-125182381D01*
X121347858Y-125230000D01*
X117959523Y-85177381D02*
X118530952Y-85177381D01*
X118245237Y-86177381D02*
X118245237Y-85177381D01*
X119245238Y-86129762D02*
X119150000Y-86177381D01*
X118959523Y-86177381D01*
X118864285Y-86129762D01*
X118816666Y-86034524D01*
X118816666Y-85653571D01*
X118864285Y-85558333D01*
X118959523Y-85510714D01*
X119150000Y-85510714D01*
X119245238Y-85558333D01*
X119292857Y-85653571D01*
X119292857Y-85748810D01*
X118816666Y-85844048D01*
X119673809Y-86129762D02*
X119769047Y-86177381D01*
X119959523Y-86177381D01*
X120054762Y-86129762D01*
X120102381Y-86034524D01*
X120102381Y-85986905D01*
X120054762Y-85891667D01*
X119959523Y-85844048D01*
X119816666Y-85844048D01*
X119721428Y-85796429D01*
X119673809Y-85701190D01*
X119673809Y-85653571D01*
X119721428Y-85558333D01*
X119816666Y-85510714D01*
X119959523Y-85510714D01*
X120054762Y-85558333D01*
X120388095Y-85510714D02*
X120769047Y-85510714D01*
X120530952Y-85177381D02*
X120530952Y-86034524D01*
X120578571Y-86129762D01*
X120673809Y-86177381D01*
X120769047Y-86177381D01*
X120864286Y-86272619D02*
X121626191Y-86272619D01*
X122340477Y-85177381D02*
X121864286Y-85177381D01*
X121816667Y-85653571D01*
X121864286Y-85605952D01*
X121959524Y-85558333D01*
X122197620Y-85558333D01*
X122292858Y-85605952D01*
X122340477Y-85653571D01*
X122388096Y-85748810D01*
X122388096Y-85986905D01*
X122340477Y-86082143D01*
X122292858Y-86129762D01*
X122197620Y-86177381D01*
X121959524Y-86177381D01*
X121864286Y-86129762D01*
X121816667Y-86082143D01*
X122673810Y-85177381D02*
X123007143Y-86177381D01*
X123340477Y-85177381D01*
X117262381Y-62302381D02*
X117262381Y-61302381D01*
X117595715Y-62016667D01*
X117929048Y-61302381D01*
X117929048Y-62302381D01*
X118357619Y-62016667D02*
X118833810Y-62016667D01*
X118262381Y-62302381D02*
X118595714Y-61302381D01*
X118929048Y-62302381D01*
X119167143Y-61302381D02*
X119833810Y-62302381D01*
X119833810Y-61302381D02*
X119167143Y-62302381D01*
X119976667Y-62397619D02*
X120738572Y-62397619D01*
X121405239Y-61635714D02*
X121405239Y-62302381D01*
X121167143Y-61254762D02*
X120929048Y-61969048D01*
X121548096Y-61969048D01*
X122071905Y-61730952D02*
X121976667Y-61683333D01*
X121929048Y-61635714D01*
X121881429Y-61540476D01*
X121881429Y-61492857D01*
X121929048Y-61397619D01*
X121976667Y-61350000D01*
X122071905Y-61302381D01*
X122262382Y-61302381D01*
X122357620Y-61350000D01*
X122405239Y-61397619D01*
X122452858Y-61492857D01*
X122452858Y-61540476D01*
X122405239Y-61635714D01*
X122357620Y-61683333D01*
X122262382Y-61730952D01*
X122071905Y-61730952D01*
X121976667Y-61778571D01*
X121929048Y-61826190D01*
X121881429Y-61921429D01*
X121881429Y-62111905D01*
X121929048Y-62207143D01*
X121976667Y-62254762D01*
X122071905Y-62302381D01*
X122262382Y-62302381D01*
X122357620Y-62254762D01*
X122405239Y-62207143D01*
X122452858Y-62111905D01*
X122452858Y-61921429D01*
X122405239Y-61826190D01*
X122357620Y-61778571D01*
X122262382Y-61730952D01*
X123357620Y-61302381D02*
X122881429Y-61302381D01*
X122833810Y-61778571D01*
X122881429Y-61730952D01*
X122976667Y-61683333D01*
X123214763Y-61683333D01*
X123310001Y-61730952D01*
X123357620Y-61778571D01*
X123405239Y-61873810D01*
X123405239Y-62111905D01*
X123357620Y-62207143D01*
X123310001Y-62254762D01*
X123214763Y-62302381D01*
X122976667Y-62302381D01*
X122881429Y-62254762D01*
X122833810Y-62207143D01*
X107513572Y-86812381D02*
X106942143Y-86812381D01*
X107227857Y-86812381D02*
X107227857Y-85812381D01*
X107132619Y-85955238D01*
X107037381Y-86050476D01*
X106942143Y-86098095D01*
X108132619Y-85812381D02*
X108227858Y-85812381D01*
X108323096Y-85860000D01*
X108370715Y-85907619D01*
X108418334Y-86002857D01*
X108465953Y-86193333D01*
X108465953Y-86431429D01*
X108418334Y-86621905D01*
X108370715Y-86717143D01*
X108323096Y-86764762D01*
X108227858Y-86812381D01*
X108132619Y-86812381D01*
X108037381Y-86764762D01*
X107989762Y-86717143D01*
X107942143Y-86621905D01*
X107894524Y-86431429D01*
X107894524Y-86193333D01*
X107942143Y-86002857D01*
X107989762Y-85907619D01*
X108037381Y-85860000D01*
X108132619Y-85812381D01*
X108894524Y-86145714D02*
X108894524Y-86812381D01*
X108894524Y-86240952D02*
X108942143Y-86193333D01*
X109037381Y-86145714D01*
X109180239Y-86145714D01*
X109275477Y-86193333D01*
X109323096Y-86288571D01*
X109323096Y-86812381D01*
X110132620Y-86288571D02*
X109799286Y-86288571D01*
X109799286Y-86812381D02*
X109799286Y-85812381D01*
X110275477Y-85812381D01*
X115133572Y-81732381D02*
X114562143Y-81732381D01*
X114847857Y-81732381D02*
X114847857Y-80732381D01*
X114752619Y-80875238D01*
X114657381Y-80970476D01*
X114562143Y-81018095D01*
X115752619Y-80732381D02*
X115847858Y-80732381D01*
X115943096Y-80780000D01*
X115990715Y-80827619D01*
X116038334Y-80922857D01*
X116085953Y-81113333D01*
X116085953Y-81351429D01*
X116038334Y-81541905D01*
X115990715Y-81637143D01*
X115943096Y-81684762D01*
X115847858Y-81732381D01*
X115752619Y-81732381D01*
X115657381Y-81684762D01*
X115609762Y-81637143D01*
X115562143Y-81541905D01*
X115514524Y-81351429D01*
X115514524Y-81113333D01*
X115562143Y-80922857D01*
X115609762Y-80827619D01*
X115657381Y-80780000D01*
X115752619Y-80732381D01*
X116943096Y-81065714D02*
X116943096Y-81732381D01*
X116514524Y-81065714D02*
X116514524Y-81589524D01*
X116562143Y-81684762D01*
X116657381Y-81732381D01*
X116800239Y-81732381D01*
X116895477Y-81684762D01*
X116943096Y-81637143D01*
X117752620Y-81208571D02*
X117419286Y-81208571D01*
X117419286Y-81732381D02*
X117419286Y-80732381D01*
X117895477Y-80732381D01*
X128722381Y-67365476D02*
X128722381Y-67936905D01*
X128722381Y-67651191D02*
X127722381Y-67651191D01*
X127865238Y-67746429D01*
X127960476Y-67841667D01*
X128008095Y-67936905D01*
X127722381Y-66746429D02*
X127722381Y-66651190D01*
X127770000Y-66555952D01*
X127817619Y-66508333D01*
X127912857Y-66460714D01*
X128103333Y-66413095D01*
X128341429Y-66413095D01*
X128531905Y-66460714D01*
X128627143Y-66508333D01*
X128674762Y-66555952D01*
X128722381Y-66651190D01*
X128722381Y-66746429D01*
X128674762Y-66841667D01*
X128627143Y-66889286D01*
X128531905Y-66936905D01*
X128341429Y-66984524D01*
X128103333Y-66984524D01*
X127912857Y-66936905D01*
X127817619Y-66889286D01*
X127770000Y-66841667D01*
X127722381Y-66746429D01*
X128722381Y-65984524D02*
X127722381Y-65984524D01*
X128722381Y-65413095D02*
X128150952Y-65841667D01*
X127722381Y-65413095D02*
X128293810Y-65984524D01*
X117292381Y-67365476D02*
X117292381Y-67936905D01*
X117292381Y-67651191D02*
X116292381Y-67651191D01*
X116435238Y-67746429D01*
X116530476Y-67841667D01*
X116578095Y-67936905D01*
X116292381Y-66746429D02*
X116292381Y-66651190D01*
X116340000Y-66555952D01*
X116387619Y-66508333D01*
X116482857Y-66460714D01*
X116673333Y-66413095D01*
X116911429Y-66413095D01*
X117101905Y-66460714D01*
X117197143Y-66508333D01*
X117244762Y-66555952D01*
X117292381Y-66651190D01*
X117292381Y-66746429D01*
X117244762Y-66841667D01*
X117197143Y-66889286D01*
X117101905Y-66936905D01*
X116911429Y-66984524D01*
X116673333Y-66984524D01*
X116482857Y-66936905D01*
X116387619Y-66889286D01*
X116340000Y-66841667D01*
X116292381Y-66746429D01*
X117292381Y-65984524D02*
X116292381Y-65984524D01*
X117292381Y-65413095D02*
X116720952Y-65841667D01*
X116292381Y-65413095D02*
X116863810Y-65984524D01*
X116862381Y-57610476D02*
X116862381Y-58181905D01*
X116862381Y-57896191D02*
X115862381Y-57896191D01*
X116005238Y-57991429D01*
X116100476Y-58086667D01*
X116148095Y-58181905D01*
X115862381Y-56991429D02*
X115862381Y-56896190D01*
X115910000Y-56800952D01*
X115957619Y-56753333D01*
X116052857Y-56705714D01*
X116243333Y-56658095D01*
X116481429Y-56658095D01*
X116671905Y-56705714D01*
X116767143Y-56753333D01*
X116814762Y-56800952D01*
X116862381Y-56896190D01*
X116862381Y-56991429D01*
X116814762Y-57086667D01*
X116767143Y-57134286D01*
X116671905Y-57181905D01*
X116481429Y-57229524D01*
X116243333Y-57229524D01*
X116052857Y-57181905D01*
X115957619Y-57134286D01*
X115910000Y-57086667D01*
X115862381Y-56991429D01*
X116862381Y-56229524D02*
X115862381Y-56229524D01*
X116862381Y-55658095D02*
X116290952Y-56086667D01*
X115862381Y-55658095D02*
X116433810Y-56229524D01*
X129062381Y-57610476D02*
X129062381Y-58181905D01*
X129062381Y-57896191D02*
X128062381Y-57896191D01*
X128205238Y-57991429D01*
X128300476Y-58086667D01*
X128348095Y-58181905D01*
X128062381Y-56991429D02*
X128062381Y-56896190D01*
X128110000Y-56800952D01*
X128157619Y-56753333D01*
X128252857Y-56705714D01*
X128443333Y-56658095D01*
X128681429Y-56658095D01*
X128871905Y-56705714D01*
X128967143Y-56753333D01*
X129014762Y-56800952D01*
X129062381Y-56896190D01*
X129062381Y-56991429D01*
X129014762Y-57086667D01*
X128967143Y-57134286D01*
X128871905Y-57181905D01*
X128681429Y-57229524D01*
X128443333Y-57229524D01*
X128252857Y-57181905D01*
X128157619Y-57134286D01*
X128110000Y-57086667D01*
X128062381Y-56991429D01*
X129062381Y-56229524D02*
X128062381Y-56229524D01*
X129062381Y-55658095D02*
X128490952Y-56086667D01*
X128062381Y-55658095D02*
X128633810Y-56229524D01*
X116387619Y-76826905D02*
X116340000Y-76779286D01*
X116292381Y-76684048D01*
X116292381Y-76445952D01*
X116340000Y-76350714D01*
X116387619Y-76303095D01*
X116482857Y-76255476D01*
X116578095Y-76255476D01*
X116720952Y-76303095D01*
X117292381Y-76874524D01*
X117292381Y-76255476D01*
X116292381Y-75636429D02*
X116292381Y-75541190D01*
X116340000Y-75445952D01*
X116387619Y-75398333D01*
X116482857Y-75350714D01*
X116673333Y-75303095D01*
X116911429Y-75303095D01*
X117101905Y-75350714D01*
X117197143Y-75398333D01*
X117244762Y-75445952D01*
X117292381Y-75541190D01*
X117292381Y-75636429D01*
X117244762Y-75731667D01*
X117197143Y-75779286D01*
X117101905Y-75826905D01*
X116911429Y-75874524D01*
X116673333Y-75874524D01*
X116482857Y-75826905D01*
X116387619Y-75779286D01*
X116340000Y-75731667D01*
X116292381Y-75636429D01*
X117292381Y-74874524D02*
X116292381Y-74874524D01*
X117292381Y-74303095D02*
X116720952Y-74731667D01*
X116292381Y-74303095D02*
X116863810Y-74874524D01*
X125277619Y-76803095D02*
X125230000Y-76755476D01*
X125182381Y-76660238D01*
X125182381Y-76422142D01*
X125230000Y-76326904D01*
X125277619Y-76279285D01*
X125372857Y-76231666D01*
X125468095Y-76231666D01*
X125610952Y-76279285D01*
X126182381Y-76850714D01*
X126182381Y-76231666D01*
X125277619Y-75850714D02*
X125230000Y-75803095D01*
X125182381Y-75707857D01*
X125182381Y-75469761D01*
X125230000Y-75374523D01*
X125277619Y-75326904D01*
X125372857Y-75279285D01*
X125468095Y-75279285D01*
X125610952Y-75326904D01*
X126182381Y-75898333D01*
X126182381Y-75279285D01*
X125182381Y-74660238D02*
X125182381Y-74564999D01*
X125230000Y-74469761D01*
X125277619Y-74422142D01*
X125372857Y-74374523D01*
X125563333Y-74326904D01*
X125801429Y-74326904D01*
X125991905Y-74374523D01*
X126087143Y-74422142D01*
X126134762Y-74469761D01*
X126182381Y-74564999D01*
X126182381Y-74660238D01*
X126134762Y-74755476D01*
X126087143Y-74803095D01*
X125991905Y-74850714D01*
X125801429Y-74898333D01*
X125563333Y-74898333D01*
X125372857Y-74850714D01*
X125277619Y-74803095D01*
X125230000Y-74755476D01*
X125182381Y-74660238D01*
X129722619Y-76803095D02*
X129675000Y-76755476D01*
X129627381Y-76660238D01*
X129627381Y-76422142D01*
X129675000Y-76326904D01*
X129722619Y-76279285D01*
X129817857Y-76231666D01*
X129913095Y-76231666D01*
X130055952Y-76279285D01*
X130627381Y-76850714D01*
X130627381Y-76231666D01*
X129722619Y-75850714D02*
X129675000Y-75803095D01*
X129627381Y-75707857D01*
X129627381Y-75469761D01*
X129675000Y-75374523D01*
X129722619Y-75326904D01*
X129817857Y-75279285D01*
X129913095Y-75279285D01*
X130055952Y-75326904D01*
X130627381Y-75898333D01*
X130627381Y-75279285D01*
X129627381Y-74660238D02*
X129627381Y-74564999D01*
X129675000Y-74469761D01*
X129722619Y-74422142D01*
X129817857Y-74374523D01*
X130008333Y-74326904D01*
X130246429Y-74326904D01*
X130436905Y-74374523D01*
X130532143Y-74422142D01*
X130579762Y-74469761D01*
X130627381Y-74564999D01*
X130627381Y-74660238D01*
X130579762Y-74755476D01*
X130532143Y-74803095D01*
X130436905Y-74850714D01*
X130246429Y-74898333D01*
X130008333Y-74898333D01*
X129817857Y-74850714D01*
X129722619Y-74803095D01*
X129675000Y-74755476D01*
X129627381Y-74660238D01*
X120832619Y-76826905D02*
X120785000Y-76779286D01*
X120737381Y-76684048D01*
X120737381Y-76445952D01*
X120785000Y-76350714D01*
X120832619Y-76303095D01*
X120927857Y-76255476D01*
X121023095Y-76255476D01*
X121165952Y-76303095D01*
X121737381Y-76874524D01*
X121737381Y-76255476D01*
X120737381Y-75636429D02*
X120737381Y-75541190D01*
X120785000Y-75445952D01*
X120832619Y-75398333D01*
X120927857Y-75350714D01*
X121118333Y-75303095D01*
X121356429Y-75303095D01*
X121546905Y-75350714D01*
X121642143Y-75398333D01*
X121689762Y-75445952D01*
X121737381Y-75541190D01*
X121737381Y-75636429D01*
X121689762Y-75731667D01*
X121642143Y-75779286D01*
X121546905Y-75826905D01*
X121356429Y-75874524D01*
X121118333Y-75874524D01*
X120927857Y-75826905D01*
X120832619Y-75779286D01*
X120785000Y-75731667D01*
X120737381Y-75636429D01*
X121737381Y-74874524D02*
X120737381Y-74874524D01*
X121737381Y-74303095D02*
X121165952Y-74731667D01*
X120737381Y-74303095D02*
X121308810Y-74874524D01*
X123793334Y-70937381D02*
X123221905Y-70937381D01*
X123507619Y-70937381D02*
X123507619Y-69937381D01*
X123412381Y-70080238D01*
X123317143Y-70175476D01*
X123221905Y-70223095D01*
X124174286Y-70032619D02*
X124221905Y-69985000D01*
X124317143Y-69937381D01*
X124555239Y-69937381D01*
X124650477Y-69985000D01*
X124698096Y-70032619D01*
X124745715Y-70127857D01*
X124745715Y-70223095D01*
X124698096Y-70365952D01*
X124126667Y-70937381D01*
X124745715Y-70937381D01*
X125364762Y-69937381D02*
X125460001Y-69937381D01*
X125555239Y-69985000D01*
X125602858Y-70032619D01*
X125650477Y-70127857D01*
X125698096Y-70318333D01*
X125698096Y-70556429D01*
X125650477Y-70746905D01*
X125602858Y-70842143D01*
X125555239Y-70889762D01*
X125460001Y-70937381D01*
X125364762Y-70937381D01*
X125269524Y-70889762D01*
X125221905Y-70842143D01*
X125174286Y-70746905D01*
X125126667Y-70556429D01*
X125126667Y-70318333D01*
X125174286Y-70127857D01*
X125221905Y-70032619D01*
X125269524Y-69985000D01*
X125364762Y-69937381D01*
X127738572Y-52427143D02*
X127690953Y-52474762D01*
X127548096Y-52522381D01*
X127452858Y-52522381D01*
X127310000Y-52474762D01*
X127214762Y-52379524D01*
X127167143Y-52284286D01*
X127119524Y-52093810D01*
X127119524Y-51950952D01*
X127167143Y-51760476D01*
X127214762Y-51665238D01*
X127310000Y-51570000D01*
X127452858Y-51522381D01*
X127548096Y-51522381D01*
X127690953Y-51570000D01*
X127738572Y-51617619D01*
X128357619Y-51522381D02*
X128548096Y-51522381D01*
X128643334Y-51570000D01*
X128738572Y-51665238D01*
X128786191Y-51855714D01*
X128786191Y-52189048D01*
X128738572Y-52379524D01*
X128643334Y-52474762D01*
X128548096Y-52522381D01*
X128357619Y-52522381D01*
X128262381Y-52474762D01*
X128167143Y-52379524D01*
X128119524Y-52189048D01*
X128119524Y-51855714D01*
X128167143Y-51665238D01*
X128262381Y-51570000D01*
X128357619Y-51522381D01*
X129214762Y-52522381D02*
X129214762Y-51522381D01*
X129786191Y-52522381D01*
X129786191Y-51522381D01*
X130262381Y-52522381D02*
X130262381Y-51522381D01*
X130833810Y-52522381D01*
X130833810Y-51522381D01*
X131071905Y-52617619D02*
X131833810Y-52617619D01*
X131929048Y-51522381D02*
X132262381Y-52522381D01*
X132595715Y-51522381D01*
X133500477Y-52427143D02*
X133452858Y-52474762D01*
X133310001Y-52522381D01*
X133214763Y-52522381D01*
X133071905Y-52474762D01*
X132976667Y-52379524D01*
X132929048Y-52284286D01*
X132881429Y-52093810D01*
X132881429Y-51950952D01*
X132929048Y-51760476D01*
X132976667Y-51665238D01*
X133071905Y-51570000D01*
X133214763Y-51522381D01*
X133310001Y-51522381D01*
X133452858Y-51570000D01*
X133500477Y-51617619D01*
X134500477Y-52427143D02*
X134452858Y-52474762D01*
X134310001Y-52522381D01*
X134214763Y-52522381D01*
X134071905Y-52474762D01*
X133976667Y-52379524D01*
X133929048Y-52284286D01*
X133881429Y-52093810D01*
X133881429Y-51950952D01*
X133929048Y-51760476D01*
X133976667Y-51665238D01*
X134071905Y-51570000D01*
X134214763Y-51522381D01*
X134310001Y-51522381D01*
X134452858Y-51570000D01*
X134500477Y-51617619D01*
X106537619Y-52427143D02*
X106490000Y-52474762D01*
X106347143Y-52522381D01*
X106251905Y-52522381D01*
X106109047Y-52474762D01*
X106013809Y-52379524D01*
X105966190Y-52284286D01*
X105918571Y-52093810D01*
X105918571Y-51950952D01*
X105966190Y-51760476D01*
X106013809Y-51665238D01*
X106109047Y-51570000D01*
X106251905Y-51522381D01*
X106347143Y-51522381D01*
X106490000Y-51570000D01*
X106537619Y-51617619D01*
X107156666Y-51522381D02*
X107347143Y-51522381D01*
X107442381Y-51570000D01*
X107537619Y-51665238D01*
X107585238Y-51855714D01*
X107585238Y-52189048D01*
X107537619Y-52379524D01*
X107442381Y-52474762D01*
X107347143Y-52522381D01*
X107156666Y-52522381D01*
X107061428Y-52474762D01*
X106966190Y-52379524D01*
X106918571Y-52189048D01*
X106918571Y-51855714D01*
X106966190Y-51665238D01*
X107061428Y-51570000D01*
X107156666Y-51522381D01*
X108013809Y-52522381D02*
X108013809Y-51522381D01*
X108585238Y-52522381D01*
X108585238Y-51522381D01*
X109061428Y-52522381D02*
X109061428Y-51522381D01*
X109632857Y-52522381D01*
X109632857Y-51522381D01*
X109870952Y-52617619D02*
X110632857Y-52617619D01*
X110870952Y-52522381D02*
X110870952Y-51522381D01*
X111109047Y-51522381D01*
X111251905Y-51570000D01*
X111347143Y-51665238D01*
X111394762Y-51760476D01*
X111442381Y-51950952D01*
X111442381Y-52093810D01*
X111394762Y-52284286D01*
X111347143Y-52379524D01*
X111251905Y-52474762D01*
X111109047Y-52522381D01*
X110870952Y-52522381D01*
X111823333Y-52236667D02*
X112299524Y-52236667D01*
X111728095Y-52522381D02*
X112061428Y-51522381D01*
X112394762Y-52522381D01*
X112585238Y-51522381D02*
X113156667Y-51522381D01*
X112870952Y-52522381D02*
X112870952Y-51522381D01*
X113680476Y-51522381D02*
X113870953Y-51522381D01*
X113966191Y-51570000D01*
X114061429Y-51665238D01*
X114109048Y-51855714D01*
X114109048Y-52189048D01*
X114061429Y-52379524D01*
X113966191Y-52474762D01*
X113870953Y-52522381D01*
X113680476Y-52522381D01*
X113585238Y-52474762D01*
X113490000Y-52379524D01*
X113442381Y-52189048D01*
X113442381Y-51855714D01*
X113490000Y-51665238D01*
X113585238Y-51570000D01*
X113680476Y-51522381D01*
X114490000Y-52474762D02*
X114632857Y-52522381D01*
X114870953Y-52522381D01*
X114966191Y-52474762D01*
X115013810Y-52427143D01*
X115061429Y-52331905D01*
X115061429Y-52236667D01*
X115013810Y-52141429D01*
X114966191Y-52093810D01*
X114870953Y-52046190D01*
X114680476Y-51998571D01*
X114585238Y-51950952D01*
X114537619Y-51903333D01*
X114490000Y-51808095D01*
X114490000Y-51712857D01*
X114537619Y-51617619D01*
X114585238Y-51570000D01*
X114680476Y-51522381D01*
X114918572Y-51522381D01*
X115061429Y-51570000D01*
X121343333Y-111143810D02*
X121343333Y-110191429D01*
X121914762Y-111334286D02*
X119914762Y-110667619D01*
X121914762Y-110000952D01*
X121724286Y-108191428D02*
X121819524Y-108286666D01*
X121914762Y-108572381D01*
X121914762Y-108762857D01*
X121819524Y-109048571D01*
X121629048Y-109239047D01*
X121438571Y-109334286D01*
X121057619Y-109429524D01*
X120771905Y-109429524D01*
X120390952Y-109334286D01*
X120200476Y-109239047D01*
X120010000Y-109048571D01*
X119914762Y-108762857D01*
X119914762Y-108572381D01*
X120010000Y-108286666D01*
X120105238Y-108191428D01*
X121914762Y-107334286D02*
X119914762Y-107334286D01*
X119914762Y-106858095D01*
X120010000Y-106572381D01*
X120200476Y-106381905D01*
X120390952Y-106286666D01*
X120771905Y-106191428D01*
X121057619Y-106191428D01*
X121438571Y-106286666D01*
X121629048Y-106381905D01*
X121819524Y-106572381D01*
X121914762Y-106858095D01*
X121914762Y-107334286D01*
X121724286Y-104191428D02*
X121819524Y-104286666D01*
X121914762Y-104572381D01*
X121914762Y-104762857D01*
X121819524Y-105048571D01*
X121629048Y-105239047D01*
X121438571Y-105334286D01*
X121057619Y-105429524D01*
X120771905Y-105429524D01*
X120390952Y-105334286D01*
X120200476Y-105239047D01*
X120010000Y-105048571D01*
X119914762Y-104762857D01*
X119914762Y-104572381D01*
X120010000Y-104286666D01*
X120105238Y-104191428D01*
X121152857Y-103334286D02*
X121152857Y-101810476D01*
X119914762Y-99905715D02*
X119914762Y-100858096D01*
X120867143Y-100953334D01*
X120771905Y-100858096D01*
X120676667Y-100667619D01*
X120676667Y-100191429D01*
X120771905Y-100000953D01*
X120867143Y-99905715D01*
X121057619Y-99810476D01*
X121533810Y-99810476D01*
X121724286Y-99905715D01*
X121819524Y-100000953D01*
X121914762Y-100191429D01*
X121914762Y-100667619D01*
X121819524Y-100858096D01*
X121724286Y-100953334D01*
X119914762Y-99239048D02*
X121914762Y-98572381D01*
X119914762Y-97905714D01*
M02*
