M48
;DRILL file {KiCad 4.0.2+dfsg1-stable} date mar 17 jul 2018 09:31:39 CEST
;FORMAT={-:-/ absolute / inch / decimal}
FMAT,2
INCH,TZ
T1C0.031
T2C0.032
T3C0.039
T4C0.039
T5C0.040
T6C0.047
T7C0.060
%
G90
G05
M72
T1
X4.398Y-2.1937
X4.4059Y-2.8079
X4.5161Y-2.9181
X4.5634Y-3.1071
X4.6579Y-2.6898
X4.9965Y-2.8315
T2
X4.7051Y-3.2803
T3
X5.2248Y-4.3291
X5.2248Y-4.7291
T4
X5.0043Y-3.2827
X5.0043Y-3.3827
X5.2012Y-3.2827
X5.2012Y-3.3827
T5
X4.2878Y-2.1709
X4.2878Y-2.2709
X4.2878Y-2.3709
X4.2878Y-2.4709
X4.2878Y-2.5709
X4.2878Y-2.6709
X4.2878Y-2.7709
X4.2878Y-2.8709
X5.1854Y-2.1701
X5.1854Y-2.2701
X5.1854Y-2.3701
X5.1854Y-2.4701
X5.1854Y-2.5701
X5.1854Y-2.6701
X5.1854Y-2.7701
X5.1854Y-2.8701
T6
X4.3744Y-3.611
X4.3744Y-4.7134
X4.6736Y-3.611
X4.9728Y-4.7134
T7
X4.3Y-5.05
X4.5Y-5.05
X4.7Y-5.05
X4.95Y-5.05
X5.15Y-5.05
T0
M30
